<?xml version="1.0" standalone="no"?>
<!DOCTYPE svg PUBLIC "-//W3C//DTD SVG 20010904//EN"
 "http://www.w3.org/TR/2001/REC-SVG-20010904/DTD/svg10.dtd">
<svg version="1.0" xmlns="http://www.w3.org/2000/svg"
 width="505.000000pt" height="494.000000pt" viewBox="0 0 505.000000 494.000000"
 preserveAspectRatio="xMidYMid meet">
<g transform="translate(0.000000,494.000000) scale(0.100000,-0.100000)"
fill="#0f1c8bff" stroke="none">
<path d="M2197 4610 c-186 -23 -347 -70 -515 -150 -329 -157 -605 -424 -775
-749 -121 -232 -173 -432 -184 -700 l-6 -164 26 7 c78 19 73 10 80 163 10 233
57 413 164 627 59 118 111 201 181 286 200 243 448 414 742 510 206 68 257 75
520 75 222 -1 242 -2 354 -29 165 -38 270 -77 416 -152 625 -322 961 -1029
816 -1714 -37 -174 -111 -370 -139 -370 -18 0 -172 23 -462 69 -143 22 -384
59 -535 80 -151 22 -527 76 -835 121 -765 110 -954 137 -1068 151 -54 6 -96
14 -93 16 2 2 134 -3 293 -11 158 -9 367 -21 463 -26 246 -13 660 -38 820 -50
74 -5 194 -12 265 -15 72 -3 301 -17 510 -30 564 -37 728 -46 733 -41 9 10
-10 72 -46 156 l-37 85 -88 12 c-48 6 -94 17 -103 24 -8 7 -68 91 -133 188
l-118 176 -7 125 c-3 69 -9 236 -13 373 -3 136 -9 247 -13 247 -16 0 -20 -36
-20 -178 0 -81 -4 -162 -10 -181 -5 -19 -12 -75 -15 -125 -10 -153 -11 -156
-48 -156 -18 0 -48 3 -68 6 l-35 6 -12 171 c-6 95 -15 295 -18 445 -4 149 -10
272 -14 272 -4 0 -10 -120 -13 -267 -4 -250 -31 -598 -46 -616 -8 -8 -413 12
-422 21 -4 4 20 69 53 145 33 77 57 142 53 145 -3 4 -52 8 -109 10 -79 3 -106
1 -117 -10 -8 -8 -59 -74 -113 -146 l-99 -132 -161 0 -162 0 -73 -74 -74 -75
440 -3 441 -3 106 -108 c58 -59 106 -112 106 -117 0 -10 -160 -7 -895 14
l-400 11 -170 -32 c-338 -66 -654 -124 -835 -154 -102 -17 -189 -34 -193 -38
-4 -4 25 -29 65 -56 78 -51 279 -194 521 -368 81 -59 190 -136 242 -172 l94
-65 1185 0 c942 0 1186 -3 1186 -12 -1 -23 -140 -188 -166 -199 -16 -6 -352
-9 -893 -9 l-867 1 -219 -67 c-120 -36 -224 -68 -231 -71 -17 -6 -152 124
-233 226 -75 95 -130 181 -190 298 -32 62 -50 84 -88 110 -26 17 -57 35 -67
39 -17 6 -18 4 -12 -22 12 -47 112 -245 167 -330 225 -345 538 -591 908 -714
207 -69 299 -84 521 -84 205 0 283 9 442 49 492 126 875 432 1106 885 150 292
209 579 184 892 -19 237 -68 421 -163 611 -240 482 -651 800 -1178 914 -98 21
-149 25 -326 28 -115 2 -241 0 -278 -5z m1239 -2929 c-3 -4 -38 -31 -79 -59
-252 -174 -562 -277 -867 -289 -171 -7 -293 6 -451 46 -122 30 -300 99 -301
116 0 6 103 52 228 102 l229 92 623 1 c343 0 621 -4 618 -9z"/>
<path d="M770 1031 c-80 -16 -120 -60 -120 -132 0 -66 32 -100 135 -142 63
-26 81 -37 83 -55 2 -13 -2 -30 -8 -38 -18 -20 -89 -17 -135 6 l-39 20 -23
-22 c-34 -32 -26 -59 27 -85 60 -31 170 -32 218 -3 49 30 74 76 69 129 -6 58
-41 91 -142 133 -75 31 -80 36 -80 63 0 28 3 30 45 33 25 2 62 -2 84 -9 37
-13 39 -12 62 16 27 35 24 41 -30 64 -53 23 -102 30 -146 22z"/>
<path d="M2095 1031 c-107 -26 -174 -112 -182 -231 -4 -57 -1 -72 24 -120 18
-34 45 -66 72 -85 37 -26 53 -30 121 -34 66 -2 87 1 125 19 72 35 99 78 103
167 l4 73 -101 0 -101 0 0 -40 0 -40 49 0 c28 0 53 -5 56 -10 4 -6 -9 -26 -28
-45 -29 -29 -42 -35 -79 -35 -49 0 -98 26 -125 66 -22 34 -23 118 0 160 34 65
137 84 213 39 l43 -25 28 24 28 24 -29 31 c-32 34 -121 72 -164 70 -15 -1 -40
-4 -57 -8z"/>
<path d="M1058 938 c-1 -51 -1 -157 1 -235 l3 -143 149 0 149 0 0 45 0 45
-100 0 -100 0 0 50 0 50 91 0 90 0 -3 43 -3 42 -87 3 -88 3 0 49 0 50 100 0
100 0 0 45 0 45 -149 0 -149 0 -4 -92z"/>
<path d="M1600 1011 c-12 -23 -157 -408 -162 -431 -2 -12 8 -15 46 -15 51 0
57 5 76 58 9 27 10 27 98 27 l89 0 17 -45 c18 -45 18 -45 67 -45 34 0 49 4 49
13 0 8 -38 112 -85 232 -47 119 -85 219 -85 221 0 2 -22 4 -50 4 -39 0 -52 -4
-60 -19z m89 -194 c11 -32 21 -62 21 -67 0 -6 -25 -10 -56 -10 -53 0 -55 1
-48 23 22 71 47 128 54 120 4 -4 17 -34 29 -66z"/>
<path d="M2450 852 l0 -179 29 -40 c38 -53 83 -73 165 -73 82 0 141 26 175 76
23 33 25 47 29 179 3 79 1 160 -2 179 -7 35 -8 36 -50 36 l-44 0 -4 -166 -4
-166 -27 -24 c-41 -35 -100 -33 -136 4 -28 27 -28 30 -36 190 l-7 162 -44 0
-44 0 0 -178z"/>
<path d="M2992 810 c-45 -121 -82 -227 -82 -235 0 -11 12 -15 48 -15 47 0 48
0 62 43 l15 42 91 3 91 3 17 -46 c18 -45 18 -45 67 -45 33 0 49 4 49 13 0 12
-126 350 -156 420 -17 36 -19 37 -69 37 l-52 0 -81 -220z m167 7 c11 -32 21
-62 21 -67 0 -6 -24 -10 -54 -10 l-54 0 10 38 c18 64 40 114 48 105 4 -4 17
-34 29 -66z"/>
<path d="M3425 979 c-3 -30 -5 -135 -3 -234 l3 -180 44 -3 c28 -2 47 1 52 10
5 7 9 46 9 86 0 39 4 72 8 72 13 0 44 -37 91 -107 41 -61 43 -63 86 -63 24 0
46 4 49 8 3 5 -17 44 -44 88 l-50 78 30 24 c83 65 80 193 -6 248 -20 14 -54
19 -144 22 l-118 4 -7 -53z m205 -52 c19 -10 25 -20 25 -47 0 -41 -28 -60 -87
-60 l-38 0 0 60 0 60 38 0 c20 0 48 -6 62 -13z"/>
<path d="M3847 1009 c-9 -31 -9 -161 0 -321 l6 -128 97 0 c111 0 184 18 230
57 91 76 103 239 25 331 -50 58 -99 74 -236 80 -115 4 -116 4 -122 -19z m251
-95 c51 -33 68 -140 32 -199 -24 -39 -64 -57 -128 -59 l-47 -1 -3 144 -3 144
63 -7 c35 -4 74 -14 86 -22z"/>
<path d="M1026 422 c-2 -4 -3 -25 -2 -47 1 -22 3 -61 4 -87 1 -34 6 -48 16
-48 11 0 16 15 18 53 l3 52 20 -32 c25 -41 40 -41 65 0 l20 32 0 -52 c0 -46 3
-53 20 -53 19 0 20 7 20 90 0 83 -2 90 -20 90 -13 0 -27 -14 -40 -40 -11 -22
-25 -40 -30 -40 -5 0 -19 18 -31 39 -20 36 -54 59 -63 43z"/>
<path d="M1548 422 c-16 -3 -18 -16 -18 -93 0 -80 2 -89 19 -89 13 0 20 9 25
30 3 17 9 30 14 30 4 0 16 -13 25 -30 11 -17 27 -30 38 -30 19 0 20 1 3 29
-16 27 -16 30 0 52 18 26 21 56 7 78 -9 14 -83 29 -113 23z m80 -58 c2 -15 -4
-23 -20 -27 -24 -7 -38 6 -38 36 0 28 54 19 58 -9z"/>
<path d="M2460 410 c-11 -11 -20 -29 -20 -39 0 -21 38 -56 71 -66 11 -4 18
-12 16 -18 -5 -17 -45 -21 -62 -7 -12 10 -16 9 -21 -5 -9 -22 12 -35 58 -35
29 0 41 6 53 24 21 32 6 62 -41 82 -48 20 -45 44 6 44 43 0 52 13 21 30 -30
16 -59 12 -81 -10z"/>
<path d="M2630 420 c0 -5 14 -31 30 -57 20 -31 30 -60 30 -85 0 -31 4 -38 20
-38 16 0 20 7 20 35 0 20 11 58 25 85 29 57 30 60 11 60 -8 0 -24 -12 -35 -27
l-20 -28 -23 26 c-24 28 -58 45 -58 29z"/>
<path d="M2883 418 c-17 -8 -23 -20 -23 -44 0 -29 5 -36 41 -54 51 -26 46 -46
-10 -42 -52 3 -57 -21 -7 -38 57 -18 107 18 92 68 -3 9 -22 26 -43 37 -47 26
-47 39 0 43 41 4 48 16 18 32 -24 12 -39 12 -68 -2z"/>
<path d="M3283 422 c-22 -3 -23 -8 -23 -93 l0 -89 60 0 c47 0 60 3 60 15 0 11
-11 15 -40 15 -33 0 -40 3 -40 20 0 14 7 20 23 20 23 0 55 16 47 23 -3 2 -21
8 -40 13 -48 13 -46 38 4 44 37 5 63 29 34 31 -35 4 -65 4 -85 1z"/>
<path d="M3750 410 c-36 -36 -21 -71 43 -98 15 -6 27 -16 27 -22 0 -17 -30
-23 -56 -11 -20 9 -26 8 -31 -5 -8 -21 14 -34 59 -34 29 0 41 6 54 25 15 23
15 27 1 48 -9 13 -29 30 -46 37 -45 18 -40 40 9 40 45 0 53 16 14 30 -37 14
-52 12 -74 -10z"/>
<path d="M1325 343 c-16 -43 -30 -84 -33 -90 -7 -20 23 -15 43 7 23 26 61 26
77 0 7 -11 21 -20 30 -20 10 0 18 1 18 3 0 1 -15 40 -33 87 -25 64 -38 86 -54
88 -17 3 -24 -9 -48 -75z m65 -14 c0 -13 -7 -19 -21 -19 -11 0 -18 3 -16 8 2
4 7 15 10 25 8 22 27 13 27 -14z"/>
<path d="M1756 404 c-3 -9 -6 -49 -6 -90 0 -67 2 -74 20 -74 19 0 20 7 20 90
0 70 -3 90 -14 90 -8 0 -17 -7 -20 -16z"/>
<path d="M1880 330 c0 -73 3 -90 15 -90 11 0 15 12 15 44 0 25 4 47 9 50 5 3
23 -17 41 -44 24 -38 38 -50 56 -50 25 0 25 1 22 87 -3 74 -6 88 -20 91 -15 3
-18 -4 -18 -47 0 -28 -3 -51 -7 -51 -5 0 -23 23 -42 50 -20 30 -42 50 -53 50
-16 0 -18 -9 -18 -90z"/>
<path d="M2130 330 l0 -90 61 0 c71 0 80 23 10 28 -33 3 -42 7 -39 20 2 10 16
19 32 22 42 7 44 28 4 32 -25 2 -33 8 -33 23 0 16 8 21 38 23 24 2 37 8 37 18
0 10 -14 14 -55 14 l-55 0 0 -90z"/>
<path d="M3050 406 c0 -8 10 -16 23 -18 20 -3 22 -9 25 -75 2 -56 6 -73 17
-73 12 0 15 16 15 75 0 73 1 75 25 75 16 0 25 6 25 15 0 12 -14 15 -65 15 -50
0 -65 -3 -65 -14z"/>
<path d="M3460 331 c0 -84 2 -91 19 -91 17 0 20 8 23 53 l3 52 18 -32 c10 -18
24 -33 32 -33 8 0 22 15 32 33 l18 32 3 -52 c3 -45 6 -53 23 -53 17 0 19 7 19
90 0 83 -2 90 -20 90 -12 0 -28 -15 -42 -40 -13 -22 -27 -40 -33 -40 -5 0 -19
17 -30 38 -12 23 -29 38 -42 40 -22 3 -23 1 -23 -87z"/>
</g>
</svg>
