<?xml version="1.0" encoding="UTF-8"?>
<svg version="1.1" xmlns="http://www.w3.org/2000/svg" width="1024" height="1024">
<path d="M0 0 C337.92 0 675.84 0 1024 0 C1024 337.92 1024 675.84 1024 1024 C686.08 1024 348.16 1024 0 1024 C0 686.08 0 348.16 0 0 Z " fill="#F8F9F9" transform="translate(0,0)"/>
<path d="M0 0 C0.76304443 0.62986816 0.76304443 0.62986816 1.54150391 1.27246094 C7.67658182 6.34095978 13.63248313 11.44628508 19.171875 17.171875 C21.05765132 19.05765132 23.02825389 20.77632581 25.0625 22.5 C28.37166917 25.35383775 31.21485343 28.39073387 34.03515625 31.72265625 C35.92162945 33.90916495 37.87431825 36.02077771 39.84985352 38.12670898 C55.30336854 54.66345209 68.82807128 73.33542812 80 93 C80.39251953 93.6796582 80.78503906 94.35931641 81.18945312 95.05957031 C107.90411174 141.35509994 124.88604045 194.3054225 126 248 C126.02723145 249.23911133 126.05446289 250.47822266 126.08251953 251.75488281 C127.84175807 340.62366775 97.05705901 421.50682944 36 486 C32.70129408 489.36929164 29.35979927 492.69180175 26 496 C23.55210562 498.43641988 21.11590086 500.88053904 18.7109375 503.359375 C12.81469339 509.39365827 6.63058276 514.79089903 0 520 C-0.93972656 520.75667969 -1.87945313 521.51335938 -2.84765625 522.29296875 C-19.12366457 535.1667663 -36.75198869 546.15992463 -55 556 C-55.87205078 556.47034668 -56.74410156 556.94069336 -57.64257812 557.42529297 C-95.51542509 577.60881719 -137.58288726 589.35473462 -180 595 C-180.86931152 595.11859375 -181.73862305 595.2371875 -182.63427734 595.359375 C-210.63507332 598.98561028 -241.03062121 598.74826344 -269 595 C-270.00095703 594.87109375 -271.00191406 594.7421875 -272.03320312 594.609375 C-297.39516337 591.26698121 -321.8407337 585.38060673 -346 577 C-346.99741211 576.65598145 -347.99482422 576.31196289 -349.02246094 575.95751953 C-406.24917101 555.9849694 -462.44014363 519.20516326 -500 471 C-500.9254593 469.87259166 -501.85404542 468.74774534 -502.78515625 467.625 C-515.25995708 452.49841294 -525.44858897 436.08979559 -535 419 C-535.36577148 418.35498535 -535.73154297 417.7099707 -536.10839844 417.04541016 C-548.55700611 395.04118109 -558.17647925 370.59671264 -564 346 C-558.90505733 348.39199187 -554.38778416 351.65588733 -549.75439453 354.82617188 C-547.9512075 356.03264603 -546.11886504 357.18118322 -544.27734375 358.328125 C-543.0384546 359.13448346 -541.8001613 359.94175821 -540.5625 360.75 C-539.98387207 361.09482422 -539.40524414 361.43964844 -538.80908203 361.79492188 C-532.94672791 365.72700944 -531.40265473 371.62055387 -529 378 C-515.22059526 410.01499891 -497.54463458 439.67303993 -473.63671875 465.1796875 C-471.11384591 467.87822704 -468.6450142 470.61698574 -466.1875 473.375 C-465.09308594 474.56996094 -465.09308594 474.56996094 -463.9765625 475.7890625 C-462 478 -462 478 -460.4609375 480.0234375 C-458.96228587 482.02292385 -458.96228587 482.02292385 -456 484 C-453.77384122 483.9345187 -453.77384122 483.9345187 -451.39135742 483.30908203 C-450.50112885 483.10478577 -449.61090027 482.9004895 -448.69369507 482.69000244 C-444.65551129 481.655603 -440.66396237 480.51640368 -436.67578125 479.3046875 C-430.88387454 477.54648626 -425.0883519 475.80424031 -419.27662754 474.11253357 C-409.53295128 471.26092644 -399.84511473 468.3952544 -390.33284503 464.83599567 C-348.80282646 449.34251193 -308.31744112 449.84193888 -264.56538311 450.34338814 C-254.08215358 450.46027589 -243.59925842 450.48201337 -233.1154701 450.50012696 C-214.43308232 450.53479389 -195.75183826 450.64029338 -177.07006836 450.79296875 C-158.96660925 450.94076027 -140.86346535 451.05355433 -122.75952148 451.12109375 C-121.63592596 451.12529733 -120.51233044 451.1295009 -119.35468657 451.13383186 C-113.71564224 451.15471863 -108.07659574 451.17493648 -102.4375478 451.19482231 C-55.9575749 451.35959071 -9.47884763 451.64041325 37 452 C37.30175644 451.38075653 37.60351288 450.76151306 37.91441345 450.12350464 C39.07040569 447.86228016 40.41010636 445.97008145 41.94140625 443.9453125 C42.52599609 443.16414062 43.11058594 442.38296875 43.71289062 441.578125 C44.91727585 439.98075664 46.12294035 438.38435176 47.33007812 436.7890625 C51.00890283 431.86798537 54.44136213 426.842337 57.74194336 421.66357422 C58.15373589 421.02012558 58.56552841 420.37667694 58.9897995 419.71372986 C59.99454176 418.14334445 60.99746067 416.57179269 62 415 C60.42067083 415.00740455 60.42067083 415.00740455 58.80943602 415.01495868 C12.3774693 415.23179198 -34.05453153 415.43233379 -80.48686218 415.55046082 C-81.19051761 415.55225556 -81.89417303 415.5540503 -82.61915135 415.55589943 C-97.91378649 415.59481291 -113.20842719 415.63082446 -128.50307615 415.66384928 C-136.00424926 415.68006377 -143.50542087 415.69691909 -151.0065918 415.71411133 C-151.75302356 415.7158112 -152.49945533 415.71751106 -153.26850624 415.71926244 C-177.43531924 415.77459821 -201.60173545 415.87219832 -225.76830836 415.99186387 C-250.61564638 416.11467605 -275.46276509 416.19455417 -300.31040148 416.22089487 C-303.82498387 416.22464054 -307.3395655 416.22887381 -310.85414696 416.23340416 C-311.54582431 416.23428066 -312.23750166 416.23515716 -312.95013894 416.23606022 C-324.05635208 416.25138538 -335.16188438 416.3115776 -346.26782055 416.38881644 C-357.45017289 416.46561952 -368.63186816 416.49346987 -379.81453923 416.47551791 C-385.8671454 416.46721136 -391.91776414 416.47971354 -397.97001457 416.54967117 C-403.52270953 416.61338248 -409.07209943 416.61585444 -414.62495317 416.57168563 C-416.62265337 416.56623519 -418.62056789 416.5823596 -420.61785225 416.62348137 C-435.58863469 416.91353359 -444.37808976 412.90986585 -456.01571729 403.56536611 C-458.8307086 401.34466844 -461.77393819 399.37947725 -464.76171875 397.3984375 C-465.7460791 396.72997803 -466.73043945 396.06151855 -467.74462891 395.37280273 C-468.71577637 394.71352783 -469.68692383 394.05425293 -470.6875 393.375 C-483.06579277 384.96252252 -495.40953176 376.50587941 -507.68725586 367.94726562 C-515.36307035 362.59714032 -523.03506209 357.2561739 -530.84375 352.1015625 C-534.94082823 349.37355744 -538.99984866 346.59142106 -543.0625 343.8125 C-582.27866556 317.02657714 -582.27866556 317.02657714 -622 291 C-619.11931899 288.11931899 -615.77155831 287.99381843 -611.89428711 287.29296875 C-610.61169227 287.05115623 -610.61169227 287.05115623 -609.30318642 286.80445862 C-607.41170856 286.448779 -605.51954962 286.09670805 -603.62683296 285.74768066 C-600.51851398 285.17434304 -597.41203636 284.59183971 -594.30589294 284.00683594 C-590.90152589 283.36570737 -587.49706281 282.72514243 -584.09209919 282.08718872 C-570.98824033 279.63084942 -557.89882658 277.10028791 -544.80913162 274.56985474 C-540.52529 273.74184336 -536.24112677 272.91550492 -531.95687866 272.08959961 C-530.88111208 271.8822146 -530.88111208 271.8822146 -529.78361285 271.67063999 C-528.32801287 271.39003976 -526.87241185 271.10944495 -525.4168098 270.82885551 C-521.74878862 270.12174591 -518.08081139 269.4144084 -514.4128418 268.70703125 C-513.6833194 268.56634185 -512.953797 268.42565245 -512.20216787 268.28069973 C-507.77685815 267.42721818 -503.35161493 266.57339266 -498.92642331 265.71929902 C-495.98679255 265.15193202 -493.04714464 264.58465386 -490.10749197 264.01740038 C-488.64571753 263.73531684 -487.18394873 263.45320408 -485.72218561 263.17106187 C-477.83696272 261.64921124 -469.95112272 260.13070689 -462.06341553 258.6217804 C-459.98018189 258.22312231 -457.89695273 257.82444084 -455.81372881 257.42573202 C-454.44847218 257.16445788 -453.08320071 256.90326128 -451.7179141 256.64214385 C-443.5902078 255.08689188 -435.46880456 253.50327658 -427.35457516 251.87902927 C-385.72461059 243.55111018 -385.72461059 243.55111018 -364.125 244.3125 C-361.83381048 244.35452656 -359.54254056 244.39232374 -357.2512207 244.42651367 C-351.57154762 244.5231376 -345.89447601 244.66720053 -340.21637249 244.83076763 C-332.75996388 245.0418497 -325.30234225 245.18147514 -317.84442139 245.32692719 C-276.0633734 246.15203558 -234.29585979 247.51083663 -192.53198242 248.9465332 C-175.0668812 249.54614838 -157.60206789 250.12013334 -140.1328125 250.5859375 C-139.35029869 250.60718248 -138.56778488 250.62842747 -137.76155853 250.65031624 C-125.83993242 250.97156258 -113.92601625 251.12869802 -102 251 C-109.6429243 244.32662345 -117.30034757 237.69733768 -125.1875 231.3125 C-129.08209368 228.11027853 -132.89779287 224.81877575 -136.70336914 221.51147461 C-137.83156006 220.53605431 -138.97534409 219.57846758 -140.1315918 218.63647461 C-142 217 -142 217 -143.83129883 214.88110352 C-149.41442489 209.13028526 -154.57331553 208.255841 -162.25390625 208.03515625 C-166.69150634 207.97520357 -171.12491789 208.01749818 -175.5625 208.0625 C-178.0417598 208.05752128 -180.52101392 208.04825032 -183.00024414 208.03515625 C-187.90594733 208.0131244 -192.81121225 208.00352243 -197.71695232 208.00970268 C-215.23905516 208.02868774 -232.75969383 207.79583599 -250.28046703 207.60271931 C-257.64271885 207.52224595 -265.00501138 207.45382906 -272.36743164 207.39086914 C-295.58907863 207.18630177 -318.79045087 206.78928121 -342 206 C-338.86921434 202.826358 -335.83409209 200.00447113 -332.1875 197.4375 C-327.37087143 193.99611991 -322.60941522 190.49122978 -317.875 186.9375 C-317.23071045 186.45531006 -316.5864209 185.97312012 -315.92260742 185.47631836 C-315.28556885 184.99815674 -314.64853027 184.51999512 -313.9921875 184.02734375 C-313.37209305 183.57350815 -312.7519986 183.11967255 -312.1131134 182.65208435 C-309.97947164 181.05081503 -309.97947164 181.05081503 -308.1739502 179.18753052 C-302.41677938 173.79611586 -297.78453717 173.26123507 -290.04727173 173.41355896 C-289.36392384 173.44294493 -288.68057594 173.47233089 -287.97652054 173.50260735 C-285.80435872 173.59178162 -283.63654623 173.62927567 -281.46273804 173.6532135 C-275.29309805 173.72856392 -269.12717927 173.88163852 -262.9609375 174.09887695 C-245.35170182 175.67567051 -245.35170182 175.67567051 -229.68334961 170.09326172 C-226.71482191 166.73845414 -224.90450447 163.03204658 -223 159 C-221.13378906 156.60327148 -221.13378906 156.60327148 -219.36328125 154.703125 C-218.8530542 154.12264404 -218.34282715 153.54216309 -217.81713867 152.9440918 C-217.07234253 152.10551636 -217.07234253 152.10551636 -216.3125 151.25 C-212.69224899 147.12134377 -209.11374393 142.98038209 -205.6875 138.6875 C-205.1092749 137.97020721 -204.5310498 137.25291443 -203.93530273 136.5138855 C-201.97138853 134.03584159 -201.97138853 134.03584159 -200.32495117 131.39675903 C-195.65937447 124.55012589 -195.65937447 124.55012589 -191.24194336 123.08563232 C-187.99770219 122.74921731 -184.88540054 122.7179616 -181.625 122.8046875 C-180.4599292 122.79664093 -179.2948584 122.78859436 -178.09448242 122.78030396 C-174.39459945 122.76537306 -170.69942401 122.81915964 -167 122.875 C-164.48307232 122.87694282 -161.96613688 122.87438711 -159.44921875 122.8671875 C-153.29843384 122.859378 -147.15005699 122.90789483 -141 123 C-142.61984438 128.26555435 -144.79144621 133.18847824 -147.0625 138.1953125 C-147.45445557 139.06517792 -147.84641113 139.93504333 -148.25024414 140.83126831 C-149.0759517 142.66237716 -149.90304582 144.49286132 -150.73144531 146.32275391 C-151.99837378 149.12140767 -153.26128104 151.92184758 -154.5234375 154.72265625 C-155.32789236 156.50531333 -156.13257218 158.28786892 -156.9375 160.0703125 C-157.31463135 160.9057962 -157.6917627 161.74127991 -158.08032227 162.6020813 C-158.6109729 163.77382401 -158.6109729 163.77382401 -159.15234375 164.96923828 C-159.46163818 165.65285431 -159.77093262 166.33647034 -160.08959961 167.040802 C-161.02203943 169.04742924 -162.00104038 171.02575884 -163 173 C-155.48423869 173.96433184 -148.02406091 174.28094581 -140.453125 174.5 C-138.48401055 174.56206881 -136.51489621 174.62414098 -134.54578781 174.68640137 C-131.11394863 174.79391012 -127.68196736 174.89667976 -124.25 175 C-120.16437862 175.12346327 -116.07880105 175.24805521 -111.99334717 175.37695312 C-109.45896992 175.45660306 -106.92450733 175.53360033 -104.38995361 175.60742188 C-96.57059637 175.85269708 -88.79462803 176.33240407 -81 177 C-81.01654129 176.38127014 -81.03308258 175.76254028 -81.05012512 175.12506104 C-81.13902229 169.2662682 -80.647638 163.85731097 -79.57421875 158.109375 C-73.09933627 120.24056673 -72.25753149 82.29848398 -71.39195251 43.96746826 C-71.210561 36.26973339 -70.92518716 28.65233006 -70 21 C-68.68 21.33 -67.36 21.66 -66 22 C-65.28183133 35.19439027 -64.87034896 48.38389594 -64.60546875 61.59375 C-63.90376473 95.85843365 -63.12334737 129.93446339 -59.42529297 164.03662109 C-58.89060714 169.01945103 -58.43102216 174.00726846 -58 179 C-57.29866943 178.98976807 -56.59733887 178.97953613 -55.87475586 178.96899414 C-48.2111273 178.87244095 -40.63518656 179.37580957 -33 180 C-33.01087646 179.39808838 -33.02175293 178.79617676 -33.03295898 178.17602539 C-33.10944657 170.29634745 -32.70341502 162.46725925 -32.20043945 154.6081543 C-32.06077222 152.41031122 -31.92954855 150.2120633 -31.79882812 148.01367188 C-31.71143959 146.61194777 -31.62356733 145.21025373 -31.53515625 143.80859375 C-31.456604 142.54845459 -31.37805176 141.28831543 -31.29711914 139.98999023 C-31 137 -31 137 -30 135 C-28.66380063 126.69971014 -28.70050529 118.1888657 -28.46484375 109.8046875 C-28.42173687 108.36165469 -28.37832025 106.91863111 -28.33460999 105.47561646 C-28.22139915 101.71110478 -28.11234582 97.94648419 -28.00421143 94.18182373 C-27.89272934 90.32686908 -27.77724177 86.47203455 -27.66210938 82.6171875 C-27.43752584 75.07823581 -27.21734225 67.5391643 -27 60 C-25.68 59.34 -24.36 58.68 -23 58 C-21.15602414 59.84397586 -21.7592534 62.83551942 -21.68359375 65.3125 C-21.66276733 65.97742966 -21.64194092 66.64235931 -21.6204834 67.32743835 C-21.55351528 69.55149741 -21.49499029 71.7756769 -21.4375 74 C-21.41632111 74.76011383 -21.39514221 75.52022766 -21.37332153 76.30337524 C-20.83522398 95.86613705 -20.90320891 115.43181986 -21 135 C-20.34 135 -19.68 135 -19 135 C-18.72646275 138.91074656 -18.46244581 142.82204056 -18.20510864 146.73388672 C-18.10991775 148.16307424 -18.01247947 149.59211383 -17.91281128 151.02099609 C-17.33032757 159.4048149 -16.93306358 167.72712447 -17.03125 176.1328125 C-17.37414572 197.43981933 -17.37414572 197.43981933 -6.62207031 215.20849609 C-3.64025262 218.50177999 -1.18182899 222.18674704 1.375 225.8125 C2.47151482 227.32504688 3.56917979 228.83676061 4.66796875 230.34765625 C8.60140785 235.80453723 12.39398713 241.35537274 16.15966797 246.92895508 C17.17093885 248.42179148 18.2021698 249.90124606 19.25 251.36865234 C20.61391213 253.41946776 21.73410172 255.38102152 22.859375 257.55712891 C25.49122579 262.30179502 28.08989047 266.74173714 33.23995972 268.96850586 C39.57725574 270.7776356 46.08291078 271.30408182 52.625 271.875 C54.60351494 272.09447479 56.58140202 272.31968941 58.55859375 272.55078125 C63.36770449 273.10034539 68.17866373 273.57142262 73 274 C78.83933525 289.27486548 84.65767598 304.54251276 90 320 C70.55941022 320.15948843 51.22716784 319.75133467 31.8046875 318.86328125 C29.04450444 318.74115352 26.28423717 318.62097794 23.52397156 318.50073242 C17.67498643 318.24497544 11.82621347 317.98478479 5.97756958 317.72134399 C-2.49013078 317.33998672 -10.95815549 316.96625745 -19.426278 316.59440553 C-32.85517308 316.0046219 -46.2838568 315.41018536 -59.71240234 314.8125 C-82.74042875 313.78773293 -105.76915377 312.77918741 -128.79815674 311.77659893 C-135.62477343 311.47927394 -142.45129999 311.17999973 -149.27774334 310.87872219 C-218.32092658 307.83396587 -287.38550164 305.27878649 -356.44458008 302.625 C-418.30303912 300.24751498 -480.16026473 297.82913614 -542 295 C-541.03457779 295.1281308 -540.06915558 295.2562616 -539.07447815 295.38827515 C-526.57016519 297.04811009 -514.06623959 298.71085154 -501.5625 300.375 C-500.03247974 300.57860138 -500.03247974 300.57860138 -498.47154999 300.78631592 C-454.57685689 306.62819054 -454.57685689 306.62819054 -433.00390625 309.6015625 C-432.27323818 309.70225666 -431.54257011 309.80295082 -430.78976059 309.90669632 C-425.01493519 310.70283046 -419.24032465 311.50052007 -413.46572876 312.29831696 C-394.15200624 314.96568893 -374.83013419 317.56195876 -355.49609375 320.078125 C-354.48410919 320.20985611 -353.47212463 320.34158722 -352.42947388 320.47731018 C-342.44816177 321.7759683 -332.46627038 323.07004358 -322.48317337 324.35491085 C-303.65668197 326.77917737 -284.84537308 329.27192919 -266.05859375 331.98828125 C-245.07619025 335.02192217 -224.06452436 337.80410742 -203.04161453 340.54111862 C-197.78650761 341.225961 -192.53181659 341.91397975 -187.27709961 342.60180664 C-180.57265048 343.47924812 -173.86817818 344.35650977 -167.16355896 345.23265076 C-143.6823868 348.30113962 -120.20295466 351.38283277 -96.7242527 354.47016239 C-90.61272988 355.27377937 -84.50115082 356.07696167 -78.3894043 356.87887573 C-54.15018199 360.05930448 -29.91536527 363.26556733 -5.69475937 366.58507347 C9.79922385 368.70844383 25.30081002 370.75955674 40.8125 372.75 C45.2982473 373.32758061 49.78388733 373.90599217 54.26953125 374.484375 C55.82125534 374.68419983 55.82125534 374.68419983 57.40432739 374.88806152 C65.27267487 375.90246588 73.13777077 376.93920396 81 378 C81.69858621 375.90207858 82.39708411 373.80412772 83.09521484 371.70605469 C83.6927936 369.91880079 84.29460355 368.13295539 84.90087891 366.34863281 C92.5528591 343.77388685 98.30464706 320.7191059 101 297 C101.14139404 295.7944043 101.14139404 295.7944043 101.28564453 294.56445312 C102.35998717 283.87099615 102.24380073 273.11097561 102.25 262.375 C102.25067474 261.32609589 102.25134949 260.27719177 102.25204468 259.19650269 C102.23577668 243.27043278 101.78448611 227.72080108 99 212 C98.74259033 210.51814209 98.74259033 210.51814209 98.47998047 209.00634766 C86.74474791 143.51347248 54.51837085 85.57181927 7.875 38.625 C6.96886963 37.70952393 6.06273926 36.79404785 5.12915039 35.85083008 C-0.94088121 29.80934525 -7.28579014 24.31116544 -14 19 C-14.75200684 18.39397949 -15.50401367 17.78795898 -16.27880859 17.16357422 C-26.76690023 8.7236944 -37.53432918 1.04894432 -49 -6 C-49.65726074 -6.41169434 -50.31452148 -6.82338867 -50.99169922 -7.24755859 C-85.51614732 -28.81999895 -124.91603176 -43.20283882 -165 -50 C-166.21937256 -50.20834473 -166.21937256 -50.20834473 -167.46337891 -50.42089844 C-252.42645342 -64.5620015 -343.71057941 -47.93898029 -414.59814453 2.27246094 C-421.19805854 7.0194615 -427.65820893 11.91347441 -434 17 C-434.84957275 17.67385742 -434.84957275 17.67385742 -435.71630859 18.36132812 C-444.2728522 25.20248483 -452.05063144 32.84829013 -459.8125 40.5625 C-460.3009137 41.04555603 -460.78932739 41.52861206 -461.2925415 42.02630615 C-467.99081225 48.66875562 -474.15069941 55.59607291 -480 63 C-480.96533564 64.1920628 -481.93135538 65.38357237 -482.8984375 66.57421875 C-528.51991449 123.92487673 -549.78074352 191.40969235 -553 264 C-556.10311638 264.67161995 -559.20765168 265.33643675 -562.3125 266 C-563.63411133 266.28617187 -563.63411133 266.28617187 -564.98242188 266.578125 C-566.25375977 266.84882812 -566.25375977 266.84882812 -567.55078125 267.125 C-568.33106689 267.29257812 -569.11135254 267.46015625 -569.9152832 267.6328125 C-572 268 -572 268 -575 268 C-576.1726581 189.90999076 -551.50084062 114.0045571 -502 53 C-501.2678125 52.07703125 -500.535625 51.1540625 -499.78125 50.203125 C-494.58750983 43.7292376 -489.06280844 37.60046531 -483.41162109 31.52929688 C-481.9957722 29.99541976 -480.59907167 28.44611917 -479.20703125 26.890625 C-473.47641124 20.50556678 -467.46814632 14.64417864 -461 9 C-459.39542613 7.52127507 -457.79126481 6.04210237 -456.1875 4.5625 C-440.04732417 -9.92355843 -421.68117036 -22.07335396 -403 -33 C-402.26668457 -33.43054688 -401.53336914 -33.86109375 -400.77783203 -34.3046875 C-361.4993948 -57.20048664 -315.29601701 -72.68171846 -270 -77 C-268.76008301 -77.13100098 -268.76008301 -77.13100098 -267.49511719 -77.26464844 C-172.6868744 -87.14119986 -73.7440562 -61.51275541 0 0 Z " fill="#002A59" transform="translate(721,131)"/>
<path d="M0 0 C2.74080594 0.00420507 5.48159065 0.00083556 8.22239685 -0.00221252 C14.10291311 -0.00482233 19.98314997 0.01073894 25.86359596 0.03897667 C34.36547049 0.07977564 42.86721121 0.09265056 51.36917301 0.09891663 C65.16611361 0.10983423 78.96290561 0.14303928 92.75976562 0.19042969 C106.15461488 0.23639113 119.54942364 0.27175072 132.94433594 0.29296875 C133.7713053 0.29428237 134.59827467 0.29559598 135.45030371 0.29694941 C139.59935702 0.30347504 143.74841061 0.30979348 147.89746439 0.31600893 C182.26662938 0.36776294 216.63561794 0.45575875 251.00463867 0.56762695 C250.21565186 1.35443848 249.42666504 2.14125 248.61376953 2.9519043 C247.14508906 4.42429529 245.68535863 5.90619236 244.25854492 7.41918945 C238.10085048 13.87552497 231.11033027 19.21591559 224.00463867 24.56762695 C222.97886719 25.34396484 222.97886719 25.34396484 221.93237305 26.13598633 C196.25841895 45.45616626 168.1270951 60.4499378 138.00463867 71.56762695 C137.12130859 71.89601563 136.23797852 72.2244043 135.32788086 72.56274414 C52.37413585 102.96746799 -44.29794481 97.97607764 -124.28149414 61.05053711 C-142.60332229 52.28780173 -142.60332229 52.28780173 -147.99536133 48.56762695 C-147.99536133 47.90762695 -147.99536133 47.24762695 -147.99536133 46.56762695 C-135.18572706 41.69151256 -122.37281515 36.82461671 -109.53442383 32.0246582 C-108.7285231 31.72332474 -107.92262238 31.42199127 -107.09230042 31.11152649 C-105.87026161 30.65461678 -105.87026161 30.65461678 -104.62353516 30.18847656 C-84.50879121 22.6676499 -64.44721907 15.01591399 -44.41650391 7.27416992 C-43.75121076 7.02986457 -43.08591761 6.78555922 -42.40046406 6.53385067 C-39.96880838 5.60706894 -39.96880838 5.60706894 -37.66891479 4.327178 C-25.81426302 -1.38302611 -12.84525806 -0.09270154 0 0 Z " fill="#F8F9F9" transform="translate(476.995361328125,613.432373046875)"/>
<path d="M0 0 C62.63710351 0 62.63710351 0 78.8125 15.52734375 C89.3009417 27.38302874 92.11758002 42.59511632 91.18017578 57.92285156 C90.04412409 71.01977268 83.93527368 83.32222871 73.85546875 91.8046875 C52.28449235 108.04390398 26.11552989 104 0 104 C0 69.68 0 35.36 0 0 Z " fill="#012958" transform="translate(818,761)"/>
<path d="M0 0 C60.88 0 60.88 0 70.5859375 9.5625 C78.16284318 17.84165548 79.58604543 27.07915708 79.33984375 38.06640625 C78.60625038 46.5575387 75.27259386 53.8693758 68.9140625 59.59765625 C65.78737471 61.88843363 62.54698791 63.44430355 59 65 C59.36609375 65.57363281 59.7321875 66.14726563 60.109375 66.73828125 C63.07334153 71.38888588 66.02978046 76.04348736 68.9609375 80.71484375 C69.48204102 81.54395264 70.00314453 82.37306152 70.54003906 83.22729492 C71.57758686 84.87870919 72.61346062 86.53117669 73.64746094 88.18481445 C75.95667512 91.85701156 78.29812828 95.45660105 80.8671875 98.953125 C83 102 83 102 83 104 C78.98071577 104.29206649 74.96416166 104.46849455 70.9375 104.625 C69.80376953 104.70878906 68.67003906 104.79257812 67.50195312 104.87890625 C59.27602097 105.11872935 59.27602097 105.11872935 55.86889648 102.1315918 C53.99950375 99.51079438 52.49414004 96.85065252 51 94 C49.85348443 92.10193604 48.70108832 90.20741229 47.54296875 88.31640625 C46.42026602 86.40090066 45.30178313 84.48291562 44.1875 82.5625 C43.0566556 80.62591302 41.92517405 78.68969791 40.79296875 76.75390625 C40.3033667 75.91158447 39.81376465 75.0692627 39.30932617 74.20141602 C38.25885515 72.43522224 37.13989606 70.70984408 36 69 C29.07 68.505 29.07 68.505 22 68 C22 79.88 22 91.76 22 104 C14.74 104 7.48 104 0 104 C0 69.68 0 35.36 0 0 Z " fill="#012A58" transform="translate(716,761)"/>
<path d="M0 0 C1.57626586 1.34109716 3.08156292 2.76526083 4.5625 4.2109375 C3.64395311 10.17483615 -1.69090901 14.13803864 -6.30078125 17.6171875 C-7.65398193 18.52147435 -9.04189588 19.37357503 -10.4375 20.2109375 C-10.9221875 19.81261719 -11.406875 19.41429687 -11.90625 19.00390625 C-21.38839763 11.50936264 -31.42504461 9.1474907 -43.4375 10.2109375 C-51.10817829 12.1123096 -57.73368051 15.83566596 -61.94140625 22.64453125 C-67.30689644 32.93220902 -68.29427645 45.43280658 -65.3125 56.7109375 C-62.34932762 64.91134478 -57.24399117 70.4227188 -49.4375 74.2109375 C-39.18040614 78.35322541 -28.68839711 76.19049042 -18.4375 73.2109375 C-17.1175 72.8809375 -15.7975 72.5509375 -14.4375 72.2109375 C-14.4375 66.6009375 -14.4375 60.9909375 -14.4375 55.2109375 C-22.3575 55.2109375 -30.2775 55.2109375 -38.4375 55.2109375 C-38.4375 48.6109375 -38.4375 42.0109375 -38.4375 35.2109375 C-23.5875 35.2109375 -8.7375 35.2109375 6.5625 35.2109375 C6.7275 42.4915625 6.8925 49.7721875 7.0625 57.2734375 C7.13533203 59.55902588 7.20816406 61.84461426 7.28320312 64.19946289 C7.30658542 66.02746838 7.32696709 67.85551576 7.34375 69.68359375 C7.38467773 70.61941284 7.42560547 71.55523193 7.46777344 72.51940918 C7.47202549 76.53388155 7.41765142 79.14797503 4.84486389 82.34597778 C-7.73395602 93.54584751 -23.83431404 97.91609172 -40.453125 97.4296875 C-55.41254978 96.33318516 -67.93864909 90.33054513 -78.1875 79.3984375 C-87.12081771 68.64536989 -89.97020347 55.84235579 -89.8125 42.1484375 C-89.82410156 41.13716797 -89.83570313 40.12589844 -89.84765625 39.08398438 C-89.79707822 25.99270418 -85.15016351 13.54226741 -76.1796875 3.828125 C-54.99752036 -15.8342454 -23.16395676 -17.00175031 0 0 Z " fill="#012A58" transform="translate(475.4375,769.7890625)"/>
<path d="M0 0 C7.59 0 15.18 0 23 0 C28.74808332 13.00527882 33.80261873 26.26555284 38.89592743 39.53837204 C40.12246985 42.73333658 41.35156695 45.92731786 42.58056641 49.12133789 C43.07187351 50.39823736 43.56317602 51.6751386 44.05447388 52.95204163 C44.29614414 53.58014299 44.53781441 54.20824436 44.78680801 54.8553791 C45.51195755 56.74046616 46.23671692 58.62570283 46.96139526 60.51097107 C49.66206357 67.53417817 52.3746708 74.55247713 55.109375 81.5625 C55.40012909 82.30871109 55.69088318 83.05492218 55.990448 83.82374573 C57.55599234 87.84126751 57.55599234 87.84126751 59.12823486 91.85617065 C59.80445305 93.57879174 60.47659365 95.30301192 61.1484375 97.02734375 C61.51114746 97.95281006 61.87385742 98.87827637 62.24755859 99.83178711 C63 102 63 102 63 104 C55.41 104 47.82 104 40 104 C35.41463415 93.68292683 35.41463415 93.68292683 33.75 89.125 C33.24726563 87.76761719 33.24726563 87.76761719 32.734375 86.3828125 C32 84 32 84 32 81 C18.47 81.33 4.94 81.66 -9 82 C-11.26014093 88.49143084 -11.26014093 88.49143084 -13.51733398 94.98388672 C-13.79907471 95.79100098 -14.08081543 96.59811523 -14.37109375 97.4296875 C-14.65911865 98.25710449 -14.94714355 99.08452148 -15.24389648 99.93701172 C-16 102 -16 102 -17 104 C-24.59 104 -32.18 104 -40 104 C-36.62552572 92.75175238 -36.62552572 92.75175238 -35.12158203 88.99804688 C-34.78292114 88.14635925 -34.44426025 87.29467163 -34.09533691 86.41717529 C-33.73645386 85.52669495 -33.3775708 84.6362146 -33.0078125 83.71875 C-32.43395813 82.27885712 -32.43395813 82.27885712 -31.84851074 80.80987549 C-31.03235675 78.76265284 -30.21442301 76.71613894 -29.39483643 74.67028809 C-27.24359819 69.29948219 -25.10585697 63.92331656 -22.96875 58.546875 C-22.33013535 56.9410556 -22.33013535 56.9410556 -21.67861938 55.30279541 C-17.38131534 44.47749727 -13.21359159 33.60452755 -9.09814453 22.70898438 C-6.20961453 15.07429513 -3.1807867 7.51822311 0 0 Z " fill="#012958" transform="translate(319,761)"/>
<path d="M0 0 C7.92 0 15.84 0 24 0 C28.94056721 12.72028391 33.87650487 25.44233885 38.80415344 38.16763306 C41.15482372 44.23794078 43.50706888 50.3076281 45.86279297 56.37597656 C48.19491857 62.38424883 50.52187785 68.39449918 52.84533691 74.40612793 C53.7401266 76.71874624 54.63669294 79.03067792 55.53503418 81.34191895 C56.7923694 84.5777167 58.04341779 87.8158773 59.29296875 91.0546875 C59.67017563 92.02121246 60.04738251 92.98773743 60.4360199 93.98355103 C60.94565025 95.31016251 60.94565025 95.31016251 61.46557617 96.66357422 C61.76356613 97.43289276 62.06155609 98.2022113 62.36857605 98.99484253 C63 101 63 101 63 104 C55.41 104 47.82 104 40 104 C36.04 93.11 36.04 93.11 32 82 C18.8 82 5.6 82 -8 82 C-10.64 89.26 -13.28 96.52 -16 104 C-23.59 104 -31.18 104 -39 104 C-38.30572639 100.52863196 -37.65627907 97.79993224 -36.42797852 94.57250977 C-35.94369637 93.29180603 -35.94369637 93.29180603 -35.44963074 91.98522949 C-35.09629166 91.06326782 -34.74295258 90.14130615 -34.37890625 89.19140625 C-34.00699661 88.212323 -33.63508698 87.23323975 -33.25190735 86.2244873 C-32.0262769 83.00221818 -30.79459147 79.78230363 -29.5625 76.5625 C-28.71164138 74.33068969 -27.86089397 72.09883698 -27.01025391 69.86694336 C-20.27990652 52.23512596 -13.43266906 34.6494611 -6.52563477 17.08618164 C-6.16028122 16.15688843 -5.79492767 15.22759521 -5.41850281 14.2701416 C-4.73731143 12.53852602 -4.05532425 10.80722319 -3.37239075 9.07629395 C-3.07273911 8.31514282 -2.77308746 7.5539917 -2.46435547 6.76977539 C-2.07399612 5.78020592 -2.07399612 5.78020592 -1.67575073 4.77064514 C-1.07478551 3.19595777 -0.53299151 1.59897453 0 0 Z " fill="#022A58" transform="translate(638,761)"/>
<path d="M0 0 C22.44 0 44.88 0 68 0 C68 6.6 68 13.2 68 20 C52.82 20 37.64 20 22 20 C22 27.26 22 34.52 22 42 C34.87 42 47.74 42 61 42 C61 48.27 61 54.54 61 61 C48.13 61 35.26 61 22 61 C22 68.26 22 75.52 22 83 C37.18 83 52.36 83 68 83 C68 89.93 68 96.86 68 104 C45.56 104 23.12 104 0 104 C0 69.68 0 35.36 0 0 Z " fill="#032B59" transform="translate(199,761)"/>
<path d="M0 0 C6.93 0 13.86 0 21 0 C21.0093457 1.97202393 21.01869141 3.94404785 21.02832031 5.97583008 C21.06400395 12.52981731 21.11790013 19.08346243 21.18390274 25.6372118 C21.22322235 29.60638264 21.25548604 33.57533678 21.27099609 37.54467773 C21.2862661 41.38345835 21.320891 45.22164259 21.36830902 49.06015587 C21.38301725 50.51633168 21.39103488 51.9725927 21.39188385 53.42884254 C21.40306733 63.00303771 21.47102542 73.23877031 28.4375 80.5625 C35.88289288 84.73918381 43.92245156 85.32525758 52.29296875 83.5 C57.18007088 81.60125833 60.77548226 78.26535782 63.25 73.6875 C65.53974858 65.48256759 65.21137153 56.88518799 65.31640625 48.4375 C65.33701404 47.03645264 65.35801141 45.63541097 65.37937927 44.234375 C65.43420552 40.57172284 65.48378634 36.9090183 65.53222656 33.24627686 C65.58273227 29.49877336 65.63826558 25.75134461 65.69335938 22.00390625 C65.8004574 14.66933275 65.90154134 7.3346955 66 0 C72.93 0 79.86 0 87 0 C87.09077532 9.31075437 87.16398755 18.62120942 87.20724869 27.9323082 C87.22802365 32.25696147 87.25615384 36.58129335 87.30175781 40.90576172 C87.34557953 45.08793496 87.36921276 49.26980127 87.37950897 53.45218658 C87.3868358 55.03881911 87.40114126 56.62543699 87.42292023 58.21193695 C87.61376006 72.70503669 85.43132108 84.15074705 75.1875 94.90234375 C65.1755781 104.45000314 51.84246623 106.47178284 38.46484375 106.25390625 C26.55165016 105.38089883 16.22674943 100.63279071 8 92 C-0.39672341 81.53672549 -0.42191935 69.62516884 -0.29296875 56.8359375 C-0.28736297 55.19113556 -0.28309752 53.54632855 -0.28010559 51.90151978 C-0.26873404 47.60412395 -0.23933457 43.30703965 -0.20599365 39.00976562 C-0.1751255 34.61202201 -0.16156472 30.21422732 -0.14648438 25.81640625 C-0.11445618 17.21077967 -0.06175262 8.60546466 0 0 Z " fill="#002856" transform="translate(502,761)"/>
<path d="M0 0 C1.65 1.98 3.3 3.96 5 6 C1.7 10.62 -1.6 15.24 -5 20 C-9 18 -9 18 -10.96484375 16.96484375 C-11.94130859 16.45630859 -11.94130859 16.45630859 -12.9375 15.9375 C-13.58589844 15.59589844 -14.23429687 15.25429688 -14.90234375 14.90234375 C-21.54122935 12.04651028 -29.83911964 11.83546513 -36.5625 14.3125 C-39.21999539 15.93093168 -39.21999539 15.93093168 -41 19 C-41.36006855 23.1407883 -41.11347898 26.37689318 -39 30 C-36.66811291 31.08884946 -36.66811291 31.08884946 -34 32 C-33.23413574 32.28584961 -32.46827148 32.57169922 -31.67919922 32.86621094 C-30.89561035 33.15270508 -30.11202148 33.43919922 -29.3046875 33.734375 C-0.50176744 44.37749246 -0.50176744 44.37749246 5.24609375 55.38671875 C8.93202216 63.71513138 8.89349456 71.36496387 6 80 C2.71243592 87.1607671 -2.61779807 92.99705452 -9.8203125 96.2890625 C-12.52922995 97.2931679 -15.22488375 98.19849127 -18 99 C-18.60457031 99.19207031 -19.20914063 99.38414062 -19.83203125 99.58203125 C-33.87341144 102.28910815 -47.93662433 99.23060792 -59.8984375 91.59375 C-62.83703527 89.36522232 -64.8607897 86.99489442 -67 84 C-65.32076975 80.19866558 -62.88537166 77.02917298 -60.375 73.75 C-59.95476562 73.19570313 -59.53453125 72.64140625 -59.1015625 72.0703125 C-58.07061281 70.71133337 -57.03570089 69.35536165 -56 68 C-53.11243732 69.31195783 -51.0382037 70.75482025 -48.75 72.9375 C-42.39758304 78.43039331 -36.23912181 79.5767678 -27.9140625 79.35546875 C-23.78266374 78.85150456 -20.22832274 77.6819912 -17 75 C-15.2256399 72.17819507 -15 71.00622442 -15 67.5625 C-16.23672805 63.15665633 -18.21741408 61.32579784 -22 59 C-26.66182998 57.04021216 -31.50089249 55.62488496 -36.32617188 54.12695312 C-46.33476949 50.87399461 -55.09490342 45.99367012 -61 37 C-64.7331083 28.89609942 -65.42577257 20.29883732 -62.4375 11.875 C-57.94833048 1.96465345 -51.09384005 -3.15662744 -41 -7 C-27.51179943 -9.93996446 -11.24554647 -8.6985705 0 0 Z " fill="#012958" transform="translate(174,767)"/>
<path d="M0 0 C30.8125 0 30.8125 0 39.5703125 8.296875 C46.93952754 17.07550275 47.88787469 27.98585828 47 39 C45.40263193 46.69032293 41.98730504 52.87148013 36 58 C24.48303652 65.40529988 14.88122392 63 0 63 C0 42.21 0 21.42 0 0 Z " fill="#F8F8F9" transform="translate(839,781)"/>
<path d="M0 0 C8 0 8 0 9.79443359 1.52880859 C10.15875488 2.22828613 10.52307617 2.92776367 10.8984375 3.6484375 C11.31480469 4.40640625 11.73117188 5.164375 12.16015625 5.9453125 C12.56105469 6.74710938 12.96195313 7.54890625 13.375 8.375 C14.21423539 9.94633434 15.05530101 11.51669293 15.8984375 13.0859375 C16.25599121 13.7876709 16.61354492 14.4894043 16.98193359 15.21240234 C17.99085119 17.16719044 17.99085119 17.16719044 20 19 C23.3 13.06 26.6 7.12 30 1 C32.97 1 35.94 1 39 1 C39 13.87 39 26.74 39 40 C36.36 40 33.72 40 31 40 C30.67 32.74 30.34 25.48 30 18 C27.03 23.28 24.06 28.56 21 34 C16.93294134 32.64431378 15.8633731 29.95551988 13.8125 26.4375 C12.554375 24.313125 11.29625 22.18875 10 20 C9.67 26.6 9.34 33.2 9 40 C6.03 40 3.06 40 0 40 C0 26.8 0 13.6 0 0 Z " fill="#022755" transform="translate(196,893)"/>
<path d="M0 0 C9 0 9 0 10.92382812 1.54467773 C11.28927734 2.25052002 11.65472656 2.9563623 12.03125 3.68359375 C12.44890625 4.44607422 12.8665625 5.20855469 13.296875 5.99414062 C13.69390625 6.80044922 14.0909375 7.60675781 14.5 8.4375 C14.92796875 9.23994141 15.3559375 10.04238281 15.796875 10.86914062 C16.5846266 12.34617487 17.35773517 13.83117679 18.11132812 15.32592773 C18.88714893 16.98482119 18.88714893 16.98482119 20 18 C23.3 12.06 26.6 6.12 30 0 C32.97 0 35.94 0 39 0 C39 12.87 39 25.74 39 39 C36.36 39 33.72 39 31 39 C30.67 31.74 30.34 24.48 30 17 C27.03 22.28 24.06 27.56 21 33 C14.8743158 29.9371579 13.28302531 24.9346996 10 19 C9.67 25.6 9.34 32.2 9 39 C6.03 39 3.06 39 0 39 C0 26.13 0 13.26 0 0 Z " fill="#032654" transform="translate(720,894)"/>
<path d="M0 0 C5.506875 -0.1546875 5.506875 -0.1546875 11.125 -0.3125 C12.2711377 -0.35802002 13.41727539 -0.40354004 14.59814453 -0.45043945 C23.04279813 -0.56519671 23.04279813 -0.56519671 26.6796875 2.39453125 C30.48263971 6.66484964 30.32944661 9.72305834 30.29296875 15.296875 C29.90388809 18.88679251 28.64063289 20.59236413 26 23 C25.34 23.66 24.68 24.32 24 25 C24.5775 25.92683594 25.155 26.85367188 25.75 27.80859375 C26.50011664 29.01815684 27.25011031 30.22779619 28 31.4375 C28.3815625 32.04916016 28.763125 32.66082031 29.15625 33.29101562 C32 37.88671875 32 37.88671875 32 39 C28.43106784 39.7755426 25.53135502 40.03531744 22 39 C18.8131492 35.26987236 15 30.08765705 15 25 C13.02 25 11.04 25 9 25 C9 29.62 9 34.24 9 39 C6.03 39 3.06 39 0 39 C0 26.13 0 13.26 0 0 Z " fill="#052755" transform="translate(302,894)"/>
<path d="M0 0 C4.16625 -0.0825 8.3325 -0.165 12.625 -0.25 C13.92775879 -0.28641602 15.23051758 -0.32283203 16.57275391 -0.36035156 C27.20942538 -0.46245307 27.20942538 -0.46245307 32 4 C34.8936214 7.47234568 35.48604318 10.42279642 35.28125 14.9453125 C34.58137444 20.05829232 33.03269478 23.18244997 29 26.375 C24.9706745 28.55755131 22.18994428 29.12259638 17.67578125 29.09765625 C16.74934814 29.09515869 15.82291504 29.09266113 14.8684082 29.09008789 C13.6949585 29.08098389 12.52150879 29.07187988 11.3125 29.0625 C7.579375 29.041875 3.84625 29.02125 0 29 C0 19.43 0 9.86 0 0 Z " fill="#F8F8F9" transform="translate(738,781)"/>
<path d="M0 0 C2.97 0 5.94 0 9 0 C9 13.2 9 26.4 9 40 C1 40 1 40 -1.21484375 38.26953125 C-1.78332031 37.45871094 -2.35179687 36.64789062 -2.9375 35.8125 C-3.91009766 34.46478516 -3.91009766 34.46478516 -4.90234375 33.08984375 C-5.59457031 32.07019531 -6.28679687 31.05054688 -7 30 C-7.83284359 28.81254334 -8.66754343 27.62638684 -9.50390625 26.44140625 C-11.705571 23.31698837 -13.84780773 20.16103239 -16 17 C-16.33 24.59 -16.66 32.18 -17 40 C-19.64 40 -22.28 40 -25 40 C-25 27.13 -25 14.26 -25 1 C-16 1 -16 1 -13.92431641 2.49707031 C-13.48780762 3.18381836 -13.05129883 3.87056641 -12.6015625 4.578125 C-12.10269531 5.32707031 -11.60382813 6.07601562 -11.08984375 6.84765625 C-10.60644531 7.64042969 -10.12304688 8.43320312 -9.625 9.25 C-9.11839844 10.02730469 -8.61179687 10.80460938 -8.08984375 11.60546875 C-7.14510654 13.05604951 -6.21328416 14.51518971 -5.29931641 15.98535156 C-3.96362184 18.05640598 -2.47864962 20.02846717 -1 22 C-0.67 14.74 -0.34 7.48 0 0 Z " fill="#012655" transform="translate(403,893)"/>
<path d="M0 0 C2.97 0 5.94 0 9 0 C10.49852308 3.62336386 11.9915476 7.24894402 13.47998047 10.87646484 C14.22999611 12.70132851 14.98408358 14.524517 15.73828125 16.34765625 C18.7976859 23.81260358 21.56354369 31.30871921 24 39 C21.03 39 18.06 39 15 39 C14.01 36.69 13.02 34.38 12 32 C7.05 31.67 2.1 31.34 -3 31 C-3.66 33.64 -4.32 36.28 -5 39 C-8.3 39 -11.6 39 -15 39 C-13.51078532 34.89082791 -12.01728192 30.78324644 -10.52001953 26.67700195 C-10.0126923 25.28386273 -9.50647962 23.89031705 -9.00146484 22.49633789 C-6.24144739 14.88032934 -3.41938605 7.35168 0 0 Z " fill="#042755" transform="translate(264,894)"/>
<path d="M0 0 C8.91 0 17.82 0 27 0 C27 2.31 27 4.62 27 7 C21.06 7 15.12 7 9 7 C9 9.97 9 12.94 9 16 C13.95 16 18.9 16 24 16 C24 18.31 24 20.62 24 23 C19.05 23 14.1 23 9 23 C9 25.64 9 28.28 9 31 C15.27 31 21.54 31 28 31 C28 33.64 28 36.28 28 39 C18.76 39 9.52 39 0 39 C0 26.13 0 13.26 0 0 Z " fill="#032553" transform="translate(674,894)"/>
<path d="M0 0 C8.25 0 16.5 0 25 0 C25 2.31 25 4.62 25 7 C19.39 7 13.78 7 8 7 C8 9.97 8 12.94 8 16 C12.95 16 17.9 16 23 16 C23 18.31 23 20.62 23 23 C18.05 23 13.1 23 8 23 C8 25.64 8 28.28 8 31 C14.27 31 20.54 31 27 31 C27 33.64 27 36.28 27 39 C18.09 39 9.18 39 0 39 C0 26.13 0 13.26 0 0 Z " fill="#00214F" transform="translate(430,894)"/>
<path d="M0 0 C1.90364978 0.94844963 3.74842441 2.01338924 5.578125 3.09765625 C4.96534888 6.05940748 4.32439978 7.47824408 2.578125 10.09765625 C1.93875 9.76765625 1.299375 9.43765625 0.640625 9.09765625 C-3.43424341 7.76708697 -7.17377925 7.93106426 -11.421875 8.09765625 C-11.37428469 10.53627032 -11.37428469 10.53627032 -10.421875 13.09765625 C-7.8369648 14.58318317 -7.8369648 14.58318317 -4.671875 15.53515625 C0.78065179 17.61880042 3.70383375 18.9649933 6.578125 24.09765625 C7.26141234 28.34922193 6.87999468 30.46976732 5.015625 34.34765625 C1.29008039 38.55083478 -2.33350727 39.86983432 -7.859375 40.47265625 C-13.63435438 39.86476368 -18.45054811 38.47347014 -22.421875 34.09765625 C-21.421875 32.09765625 -20.421875 30.09765625 -19.421875 28.09765625 C-17.24222189 28.56472477 -15.49600335 29.05565018 -13.546875 30.16015625 C-10.73207714 31.40197884 -8.46595115 31.29618296 -5.421875 31.09765625 C-4.761875 30.76765625 -4.101875 30.43765625 -3.421875 30.09765625 C-3.46946531 27.65904218 -3.46946531 27.65904218 -4.421875 25.09765625 C-7.0067852 23.61212933 -7.0067852 23.61212933 -10.171875 22.66015625 C-15.62440179 20.57651208 -18.54758375 19.2303192 -21.421875 14.09765625 C-21.96254605 10.24537501 -21.76580801 7.93838138 -20.296875 4.34765625 C-15.23950914 -1.72118278 -7.19963953 -2.68244634 0 0 Z " fill="#062958" transform="translate(605.421875,893.90234375)"/>
<path d="M0 0 C1.89947803 0.95311887 3.74202552 2.01813318 5.5703125 3.1015625 C4.95753638 6.06331373 4.31658728 7.48215033 2.5703125 10.1015625 C1.9309375 9.7715625 1.2915625 9.4415625 0.6328125 9.1015625 C-3.44205591 7.77099322 -7.18159175 7.93497051 -11.4296875 8.1015625 C-11.38209719 10.54017657 -11.38209719 10.54017657 -10.4296875 13.1015625 C-7.8447773 14.58708942 -7.8447773 14.58708942 -4.6796875 15.5390625 C0.77283929 17.62270667 3.69602125 18.96889955 6.5703125 24.1015625 C7.24811965 28.31902921 6.85784811 30.47856868 5.0703125 34.3515625 C1.88876427 37.85126555 -0.796162 39.25984623 -5.4296875 40.1015625 C-10.97188415 40.24222739 -15.75005752 39.18327005 -20.4296875 36.1015625 C-21.8046875 33.9140625 -21.8046875 33.9140625 -22.4296875 32.1015625 C-21.1096875 30.7815625 -19.7896875 29.4615625 -18.4296875 28.1015625 C-13.6796875 29.9765625 -13.6796875 29.9765625 -11.4296875 31.1015625 C-7.28465089 31.34943267 -7.28465089 31.34943267 -3.4296875 30.1015625 C-3.51527354 27.64748522 -3.51527354 27.64748522 -4.4296875 25.1015625 C-6.7884206 23.80109283 -6.7884206 23.80109283 -9.6796875 23.1015625 C-14.4254104 21.54225355 -17.55882125 20.40786188 -20.4296875 16.1015625 C-21.6514664 12.3529227 -22.32705408 8.88872295 -20.50390625 5.2578125 C-15.28001041 -1.34079277 -7.81988686 -2.89159803 0 0 Z " fill="#052756" transform="translate(516.4296875,893.8984375)"/>
<path d="M0 0 C2.92908678 1.07493729 5.29813463 2.39889459 8 4 C7.38722388 6.96175123 6.74627478 8.38058783 5 11 C4.360625 10.67 3.72125 10.34 3.0625 10 C-1.01236841 8.66943072 -4.75190425 8.83340801 -9 9 C-8.95667254 11.43360817 -8.95667254 11.43360817 -8 14 C-5.38595709 15.55761732 -5.38595709 15.55761732 -2.1875 16.5625 C2.85492696 18.33748343 6.5268906 20.05378119 9 25 C9.47210258 29.72102578 9.73364092 32.65955345 6.6875 36.4375 C2.02000326 40.88790387 -2.66497809 40.27358594 -8.8203125 40.21875 C-12.56633129 39.96103863 -14.99205373 39.27628366 -18 37 C-19.375 34.8125 -19.375 34.8125 -20 33 C-18.68 31.68 -17.36 30.36 -16 29 C-11.25 30.875 -11.25 30.875 -9 32 C-4.94857881 32.25860135 -3.45662331 32.30441554 0 30 C0 28.68 0 27.36 0 26 C-0.65226563 25.82984375 -1.30453125 25.6596875 -1.9765625 25.484375 C-8.35653315 23.71529759 -13.49179669 21.91275223 -17.9375 16.75 C-19.4173216 12.91987351 -19.43686703 9.86548468 -18 6 C-12.93578139 0.00832275 -7.44077528 -0.83276119 0 0 Z " fill="#042655" transform="translate(795,893)"/>
<path d="M0 0 C3.35831924 1.67915962 3.84588557 5.52348821 5.0390625 8.90234375 C5.32478119 9.69524307 5.61049988 10.4881424 5.90487671 11.30506897 C6.50836069 12.98430047 7.10833177 14.66479791 7.70507812 16.34643555 C8.62090177 18.92595687 9.54776571 21.501297 10.4765625 24.07617188 C11.06055103 25.70549448 11.64390575 27.33504442 12.2265625 28.96484375 C12.50464752 29.73884018 12.78273254 30.51283661 13.06924438 31.31028748 C15 36.76727868 15 36.76727868 15 39 C5.43 39 -4.14 39 -14 39 C-9.48946606 25.93500513 -4.94530687 12.90650165 0 0 Z " fill="#F6F7F8" transform="translate(649,786)"/>
<path d="M0 0 C2.30592163 3.45888244 3.61778278 7.03997709 5.0390625 10.9140625 C5.32478119 11.68430756 5.61049988 12.45455261 5.90487671 13.24813843 C6.50677811 14.87308069 7.1068024 16.49871933 7.70507812 18.125 C8.62463141 20.62399831 9.5500981 23.12074418 10.4765625 25.6171875 C11.06024293 27.19518416 11.64358796 28.77330492 12.2265625 30.3515625 C12.50464752 31.10257233 12.78273254 31.85358215 13.06924438 32.62734985 C15 37.88351275 15 37.88351275 15 39 C5.43 39 -4.14 39 -14 39 C-11.70141666 31.33805553 -9.25380123 23.85531611 -6.55615234 16.33764648 C-5.86541547 14.41076295 -5.18056428 12.48185157 -4.49609375 10.55273438 C-4.06167969 9.33779297 -3.62726563 8.12285156 -3.1796875 6.87109375 C-2.78507324 5.76693115 -2.39045898 4.66276855 -1.98388672 3.52514648 C-1 1 -1 1 0 0 Z " fill="#F6F7F8" transform="translate(330,786)"/>
<path d="M0 0 C2.97 0 5.94 0 9 0 C11.64 4.62 14.28 9.24 17 14 C19.72558157 10.59302303 21.74657784 7.91609124 23.75 4.1875 C24.17796875 3.39730469 24.6059375 2.60710938 25.046875 1.79296875 C25.36140625 1.20128906 25.6759375 0.60960937 26 0 C28.97 0 31.94 0 35 0 C33.76721743 4.5225509 31.86527054 7.90637642 29.31787109 11.76196289 C23.35408044 20.89118258 21.50426011 28.16662526 22 39 C19.03 39 16.06 39 13 39 C13.06703125 38.08863281 13.1340625 37.17726563 13.203125 36.23828125 C13.35769986 23.29263655 7.99776365 14.58816695 1.08569336 3.90087891 C0 2 0 2 0 0 Z " fill="#042755" transform="translate(536,894)"/>
<path d="M0 0 C9.57 0 19.14 0 29 0 C29 2.31 29 4.62 29 7 C25.7 7 22.4 7 19 7 C19 17.56 19 28.12 19 39 C16.03 39 13.06 39 10 39 C10 28.44 10 17.88 10 7 C6.7 7 3.4 7 0 7 C0 4.69 0 2.38 0 0 Z " fill="#002351" transform="translate(627,894)"/>
<path d="M0 0 C1.32 0.33 2.64 0.66 4 1 C6.03743842 38.4270936 6.03743842 38.4270936 4 56 C3.01 56 2.02 56 1 56 C-0.2197499 60.89038141 -0.28600646 65.77821843 -0.46484375 70.7890625 C-0.5433128 72.71876251 -0.62209831 74.64844967 -0.70117188 76.578125 C-0.82113219 79.61087947 -0.93818576 82.64367531 -1.04956055 85.67675781 C-1.15894401 88.61041765 -1.2798372 91.54342548 -1.40234375 94.4765625 C-1.43263168 95.38596588 -1.46291962 96.29536926 -1.49412537 97.23233032 C-1.53078812 98.0768576 -1.56745087 98.92138489 -1.60522461 99.79150391 C-1.63329697 100.53365143 -1.66136932 101.27579895 -1.69029236 102.04043579 C-2 104 -2 104 -4 107 C-3.51841511 84.8098996 -2.89333271 62.62586649 -2.13104248 40.443573 C-2.04404238 37.90839333 -1.95813635 35.37317588 -1.87335205 32.83792114 C-1.75239529 29.23817096 -1.62688122 25.63860819 -1.5 22.0390625 C-1.46458099 20.97067642 -1.42916199 19.90229034 -1.39266968 18.80152893 C-1.16388623 12.50058458 -0.71435692 6.26481916 0 0 Z " fill="#0E2E5A" transform="translate(651,152)"/>
<path d="M0 0 C2.97 0 5.94 0 9 0 C9 12.87 9 25.74 9 39 C6.03 39 3.06 39 0 39 C0 26.13 0 13.26 0 0 Z " fill="#082956" transform="translate(351,894)"/>
<path d="M0 0 C0.549478 0.02283554 1.09895599 0.04567108 1.66508484 0.06919861 C39.82792804 1.65726779 39.82792804 1.65726779 78 3 C78 3.33 78 3.66 78 4 C76.02 4.33 74.04 4.66 72 5 C71.67 6.65 71.34 8.3 71 10 C63.70081244 10.24300485 56.67760872 9.30589723 49.453125 8.3203125 C48.16436462 8.14748749 46.87560425 7.97466248 45.54779053 7.79660034 C42.83426147 7.43192841 40.12131051 7.06327232 37.40869141 6.69189453 C33.93756891 6.21712559 30.46503248 5.75375087 26.99196243 5.2934742 C23.66560251 4.85077759 20.34070919 4.39749164 17.015625 3.9453125 C15.7708136 3.78064484 14.5260022 3.61597717 13.24346924 3.44631958 C12.08836853 3.28630463 10.93326782 3.12628967 9.74316406 2.96142578 C8.72804749 2.82374786 7.71293091 2.68606995 6.66705322 2.54421997 C4.12315284 2.0251297 2.2415928 1.28386984 0 0 Z " fill="#EBF1F4" transform="translate(175,425)"/>
<path d="M0 0 C14.85 0 29.7 0 45 0 C45 0.66 45 1.32 45 2 C30.81 2 16.62 2 2 2 C2 7.61 2 13.22 2 19 C9.26 19 16.52 19 24 19 C24 19.33 24 19.66 24 20 C16.08 20 8.16 20 0 20 C0 13.4 0 6.8 0 0 Z " fill="#20345A" transform="translate(437,805)"/>
<path d="M0 0 C8.3984375 -0.1953125 8.3984375 -0.1953125 11 0 C13 2 13 2 13.3125 4.9375 C13 8 13 8 11.8046875 9.6796875 C9.37261522 11.45899579 7.79170104 11.30357277 4.8125 11.1875 C3.224375 11.125625 1.63625 11.06375 0 11 C0 7.37 0 3.74 0 0 Z " fill="#EEF2F5" transform="translate(311,901)"/>
<path d="M0 0 C2.93906038 2.7671855 5.14403446 5.53504214 7.27734375 8.95703125 C7.87353516 9.90513672 8.46972656 10.85324219 9.08398438 11.83007812 C9.69564453 12.81427734 10.30730469 13.79847656 10.9375 14.8125 C12.15307692 16.75768089 13.37048779 18.70171706 14.58984375 20.64453125 C15.45585205 22.02439209 15.45585205 22.02439209 16.33935547 23.43212891 C17.80873429 25.70424393 19.33902265 27.89499963 20.94140625 30.07421875 C23 33 23 33 23 35 C14.75 35 6.5 35 -2 35 C-2.33 34.34 -2.66 33.68 -3 33 C4.26 32.67 11.52 32.34 19 32 C10.46423776 17.91078567 10.46423776 17.91078567 1.36328125 4.1875 C0 2 0 2 0 0 Z " fill="#192D56" transform="translate(776,830)"/>
<path d="M0 0 C2.97 0 5.94 0 9 0 C9 13.2 9 26.4 9 40 C6.36 40 3.72 40 1 40 C1 39.01 1 38.02 1 37 C2.98 37.66 4.96 38.32 7 39 C7 26.79 7 14.58 7 2 C4.69 2 2.38 2 0 2 C0 1.34 0 0.68 0 0 Z " fill="#283B61" transform="translate(403,893)"/>
<path d="M0 0 C2.64 0 5.28 0 8 0 C8 0.66 8 1.32 8 2 C6.02 2 4.04 2 2 2 C2 14.21 2 26.42 2 39 C4.31 39 6.62 39 9 39 C9 39.33 9 39.66 9 40 C6.03 40 3.06 40 0 40 C0 26.8 0 13.6 0 0 Z " fill="#2C3E62" transform="translate(196,893)"/>
<path d="M0 0 C1.32 0.33 2.64 0.66 4 1 C4 14.86 4 28.72 4 43 C3.67 43 3.34 43 3 43 C2.67 33.76 2.34 24.52 2 15 C1.67 17.97 1.34 20.94 1 24 C0.67 24 0.34 24 0 24 C0 16.08 0 8.16 0 0 Z " fill="#01133F" transform="translate(651,152)"/>
<path d="M0 0 C1.62276158 2.43414237 2.61744792 4.31319446 3.625 7 C3.88539063 7.680625 4.14578125 8.36125 4.4140625 9.0625 C5 11 5 11 5 14 C2.03 14 -0.94 14 -4 14 C-2 4.42857143 -2 4.42857143 0 0 Z " fill="#F9FAF9" transform="translate(268,904)"/>
<path d="M0 0 C0.99 0.33 1.98 0.66 3 1 C3 15.52 3 30.04 3 45 C2.67 45 2.34 45 2 45 C1.96241577 43.68394775 1.96241577 43.68394775 1.92407227 42.34130859 C1.82854616 39.06482809 1.72933757 35.78850102 1.62768555 32.51220703 C1.58455749 31.09818835 1.54286832 29.68412498 1.50268555 28.27001953 C1.4444425 26.2293556 1.38090859 24.18891205 1.31640625 22.1484375 C1.27974854 20.92302246 1.24309082 19.69760742 1.20532227 18.43505859 C1.01327887 15.22215658 0.5944606 12.16058413 0 9 C-0.33 9 -0.66 9 -1 9 C-1.09765625 2.84765625 -1.09765625 2.84765625 -1 1 C-0.67 0.67 -0.34 0.34 0 0 Z " fill="#000F3E" transform="translate(696,189)"/>
<path d="M0 0 C0 0.99 0 1.98 0 3 C-1.65 3 -3.3 3 -5 3 C-1.53233124 6.82516038 2.45579194 9.45754712 6.75 12.25 C7.44738281 12.70890625 8.14476563 13.1678125 8.86328125 13.640625 C10.57274211 14.76465406 12.28599512 15.88291224 14 17 C13.67 17.66 13.34 18.32 13 19 C5.08 13.72 -2.84 8.44 -11 3 C-7.88866897 -0.11133103 -4.26881718 0 0 0 Z " fill="#12234F" transform="translate(110,419)"/>
<path d="M0 0 C0.33 0.66 0.66 1.32 1 2 C11.89 1.505 11.89 1.505 23 1 C23.33 1.99 23.66 2.98 24 4 C16.41 4 8.82 4 1 4 C0.67 2.68 0.34 1.36 0 0 Z " fill="#253B62" transform="translate(358,861)"/>
<path d="M0 0 C0.33 0.66 0.66 1.32 1 2 C7.6 2.33 14.2 2.66 21 3 C21 3.66 21 4.32 21 5 C13.41 5 5.82 5 -2 5 C-1.34 3.35 -0.68 1.7 0 0 Z " fill="#263D63" transform="translate(281,860)"/>
<path d="M0 0 C0.33 0 0.66 0 1 0 C1 1.98 1 3.96 1 6 C-1.27057377 6.05398987 -3.54151288 6.09278742 -5.8125 6.125 C-7.70935547 6.15980469 -7.70935547 6.15980469 -9.64453125 6.1953125 C-13 6 -13 6 -16 4 C-11.05 4 -6.1 4 -1 4 C-0.67 2.68 -0.34 1.36 0 0 Z " fill="#E1ECF1" transform="translate(687,305)"/>
<path d="M0 0 C0.99 0 1.98 0 3 0 C2.67 1.65 2.34 3.3 2 5 C6.33420699 7.03165952 10.28596212 7.52060632 15 8 C15 8.33 15 8.66 15 9 C5.33602746 9.68755536 5.33602746 9.68755536 1.375 7.25 C0.59125 6.5075 -0.1925 5.765 -1 5 C-1 1 -1 1 0 0 Z " fill="#051947" transform="translate(585,924)"/>
<path d="M0 0 C0.66 0 1.32 0 2 0 C3.08360869 6.06820868 2.79074734 10.10106757 1 16 C0.67 16 0.34 16 0 16 C0 10.72 0 5.44 0 0 Z " fill="#EBF0F3" transform="translate(408,805)"/>
<path d="M0 0 C0.70189453 0.06123047 1.40378906 0.12246094 2.12695312 0.18554688 C3.8567967 0.33852624 5.58488497 0.51112602 7.3125 0.6875 C7.3125 1.0175 7.3125 1.3475 7.3125 1.6875 C3.31454108 2.64369733 -0.39553922 2.7914592 -4.5 2.75 C-5.66144531 2.74097656 -6.82289063 2.73195313 -8.01953125 2.72265625 C-8.89996094 2.71105469 -9.78039062 2.69945312 -10.6875 2.6875 C-7.9613524 -1.37560888 -4.3364724 -0.4575363 0 0 Z " fill="#041F4E" transform="translate(389.6875,334.3125)"/>
<path d="M0 0 C0.66 0.33 1.32 0.66 2 1 C0.625 2.5 0.625 2.5 -1 4 C-1.66 4 -2.32 4 -3 4 C-3.226875 4.598125 -3.45375 5.19625 -3.6875 5.8125 C-5.33811133 8.56351888 -7.1972081 9.52484637 -10 11 C-10 10.01 -10 9.02 -10 8 C-7.8125 5.95703125 -7.8125 5.95703125 -5 3.8125 C-4.071875 3.09707031 -3.14375 2.38164063 -2.1875 1.64453125 C-1.1046875 0.83048828 -1.1046875 0.83048828 0 0 Z " fill="#081D4A" transform="translate(711,629)"/>
<path d="M0 0 C1.74627478 2.61941217 2.38722388 4.03824877 3 7 C2.071875 7.12375 2.071875 7.12375 1.125 7.25 C-1.18437567 7.81258459 -1.18437567 7.81258459 -2.25 10.0625 C-2.4975 10.701875 -2.745 11.34125 -3 12 C-4.21386936 8.35839192 -3.6674695 7.66834531 -2.0625 4.3125 C-1.49208984 3.10013672 -1.49208984 3.10013672 -0.91015625 1.86328125 C-0.60980469 1.24839844 -0.30945313 0.63351562 0 0 Z " fill="#EAF1F4" transform="translate(330,786)"/>
<path d="M0 0 C0 0.99 0 1.98 0 3 C-5.37305699 4.67357513 -5.37305699 4.67357513 -8 5 C-10 3.625 -10 3.625 -11 2 C-3.375 0 -3.375 0 0 0 Z " fill="#0E2A56" transform="translate(110,419)"/>
<path d="M0 0 C3.96 0 7.92 0 12 0 C12 1.32 12 2.64 12 4 C9.36 4 6.72 4 4 4 C5.32 3.34 6.64 2.68 8 2 C5.36 1.67 2.72 1.34 0 1 C0 0.67 0 0.34 0 0 Z " fill="#033260" transform="translate(440,911)"/>
<path d="M0 0 C2.97 0 5.94 0 9 0 C9 1.65 9 3.3 9 5 C8.01 4.34 7.02 3.68 6 3 C3.35367713 3.3121764 3.35367713 3.3121764 1 4 C0.67 2.68 0.34 1.36 0 0 Z " fill="#05204A" transform="translate(536,894)"/>
<path d="M0 0 C2.64 0.33 5.28 0.66 8 1 C8 3.97 8 6.94 8 10 C7.67 10 7.34 10 7 10 C7 7.36 7 4.72 7 2 C3.45481116 3.39759905 3.45481116 3.39759905 0 5 C-0.33 4.01 -0.66 3.02 -1 2 C-0.67 1.34 -0.34 0.68 0 0 Z " fill="#093260" transform="translate(750,894)"/>
<path d="M0 0 C1.74627478 2.61941217 2.38722388 4.03824877 3 7 C2.01 7 1.02 7 0 7 C-0.99 7.99 -1.98 8.98 -3 10 C-2.01 6.7 -1.02 3.4 0 0 Z " fill="#E8EFF2" transform="translate(268,904)"/>
<path d="M0 0 C1.98 0 3.96 0 6 0 C5.67 1.32 5.34 2.64 5 4 C3.35 4 1.7 4 0 4 C-0.33 3.34 -0.66 2.68 -1 2 C-0.67 1.34 -0.34 0.68 0 0 Z " fill="#032F5E" transform="translate(563,895)"/>
<path d="M0 0 C0.33 0.66 0.66 1.32 1 2 C-0.12104533 3.31587941 -1.24696965 4.62760353 -2.375 5.9375 C-3.00148438 6.66839844 -3.62796875 7.39929688 -4.2734375 8.15234375 C-6 10 -6 10 -8 11 C-6.63629701 8.00779732 -5.05091917 5.70973471 -2.875 3.25 C-2.33617187 2.63640625 -1.79734375 2.0228125 -1.2421875 1.390625 C-0.62730469 0.70226562 -0.62730469 0.70226562 0 0 Z " fill="#071A4A" transform="translate(511,275)"/>
<path d="M0 0 C0.99 0.66 1.98 1.32 3 2 C0.36 3.98 -2.28 5.96 -5 8 C-5.66 7.67 -6.32 7.34 -7 7 C-4.69 4.69 -2.38 2.38 0 0 Z " fill="#1B3560" transform="translate(251,148)"/>
<path d="M0 0 C2 3 2 3 2 6 C-0.97 6 -3.94 6 -7 6 C-7 5.01 -7 4.02 -7 3 C-4.03 3.495 -4.03 3.495 -1 4 C-0.67 2.68 -0.34 1.36 0 0 Z " fill="#E7F0F3" transform="translate(271,912)"/>
<path d="M0 0 C0.33 0.66 0.66 1.32 1 2 C-5.0546875 2.9765625 -5.0546875 2.9765625 -7 3 C-7.66 2.34 -8.32 1.68 -9 1 C-6.04335481 -0.4783226 -3.25770263 -0.06032783 0 0 Z " fill="#092350" transform="translate(134,415)"/>
<path d="M0 0 C3.7952131 1.49097658 5.61042731 3.75700849 8 7 C5 7 5 7 2.3125 4.625 C0 2 0 2 0 0 Z " fill="#1E3660" transform="translate(742,151)"/>
<path d="M0 0 C0.33 0 0.66 0 1 0 C0.125 7.625 0.125 7.625 -1 11 C-1.66 11 -2.32 11 -3 11 C-2.25 3.375 -2.25 3.375 0 0 Z " fill="#EEF3F6" transform="translate(812,474)"/>
<path d="M0 0 C3.63 0 7.26 0 11 0 C10.67 0.99 10.34 1.98 10 3 C5.06071112 3.3367697 4.21507278 3.16130459 0 0 Z " fill="#0D3562" transform="translate(177,423)"/>
<path d="M0 0 C1.98 0 3.96 0 6 0 C6 0.99 6 1.98 6 3 C3.69 3 1.38 3 -1 3 C-0.67 2.01 -0.34 1.02 0 0 Z " fill="#F7F9FA" transform="translate(221,429)"/>
<path d="M0 0 C0.99 0 1.98 0 3 0 C2.43628586 3.26954202 1.50037734 4.82575883 -1 7 C-1.66 6.67 -2.32 6.34 -3 6 C-3 5.34 -3 4.68 -3 4 C-2.34 3.67 -1.68 3.34 -1 3 C-0.67 2.01 -0.34 1.02 0 0 Z " fill="#0A2F5D" transform="translate(514,921)"/>
<path d="M0 0 C1.60031344 3.20062687 0.03173691 5.72271806 -1 9 C-2.32 8.67 -3.64 8.34 -5 8 C-3.35 5.36 -1.7 2.72 0 0 Z " fill="#E5ECF1" transform="translate(750,910)"/>
<path d="M0 0 C2 2 2 2 2.125 5.125 C2.08375 6.07375 2.0425 7.0225 2 8 C1.01 8.33 0.02 8.66 -1 9 C-0.67 6.03 -0.34 3.06 0 0 Z " fill="#E3EBEF" transform="translate(843,444)"/>
</svg>
